<svg width="48" height="48" viewBox="0 0 48 48" fill="none" xmlns="http://www.w3.org/2000/svg">
<circle cx="24" cy="24" r="12" fill="#CA4A65"/>
<path d="M28.3271 19.3102C28.5384 19.109 28.8196 18.9978 29.1113 19C29.403 19.0022 29.6825 19.1177 29.8907 19.322C30.099 19.5264 30.2197 19.8036 30.2274 20.0953C30.2351 20.3869 30.1292 20.6701 29.9321 20.8852L23.9471 28.3702C23.8441 28.4811 23.7199 28.57 23.5819 28.6318C23.4438 28.6935 23.2947 28.7268 23.1434 28.7296C22.9922 28.7324 22.842 28.7046 22.7017 28.6481C22.5614 28.5915 22.434 28.5072 22.3271 28.4002L18.3581 24.4312C18.2475 24.3282 18.1589 24.204 18.0974 24.066C18.0359 23.928 18.0028 23.779 18.0002 23.628C17.9975 23.4769 18.0253 23.3269 18.0819 23.1868C18.1385 23.0467 18.2227 22.9195 18.3295 22.8126C18.4363 22.7058 18.5636 22.6216 18.7037 22.565C18.8437 22.5084 18.9938 22.4807 19.1448 22.4833C19.2959 22.486 19.4449 22.519 19.5829 22.5805C19.7209 22.642 19.8451 22.7307 19.9481 22.8412L23.0891 25.9807L28.2986 19.3432C28.3079 19.3317 28.318 19.3206 28.3286 19.3102H28.3271Z" fill="white"/>
</svg>
