<svg width="48" height="48" viewBox="0 0 48 48" fill="none" xmlns="http://www.w3.org/2000/svg">
<circle cx="24" cy="24" r="12" fill="#CA4A65"/>
<g clip-path="url(#clip0_170_5613)">
<path fill-rule="evenodd" clip-rule="evenodd" d="M26.8571 20.6667C27.1097 20.6667 27.3519 20.7671 27.5305 20.9457C27.7091 21.1243 27.8095 21.3665 27.8095 21.6191V26.381C27.8095 26.6336 27.7091 26.8759 27.5305 27.0545C27.3519 27.2331 27.1097 27.3334 26.8571 27.3334L25.429 27.3329L24.3366 28.4253C24.2546 28.5073 24.1455 28.5566 24.0298 28.5638C23.9141 28.5711 23.7997 28.5359 23.708 28.4648L23.6633 28.4253L22.5709 27.3329L21.1428 27.3334C20.8902 27.3334 20.648 27.2331 20.4694 27.0545C20.2908 26.8759 20.1904 26.6336 20.1904 26.381V21.6191C20.1904 21.3665 20.2908 21.1243 20.4694 20.9457C20.648 20.7671 20.8902 20.6667 21.1428 20.6667H26.8571Z" stroke="white" stroke-linecap="round" stroke-linejoin="round"/>
<path fill-rule="evenodd" clip-rule="evenodd" d="M23.9996 24.4763C24.2377 24.4763 24.4758 24.2382 24.4758 24.0001C24.4758 23.762 24.2377 23.5239 23.9996 23.5239C23.7615 23.5239 23.5239 23.762 23.5239 24.0001C23.5239 24.2382 23.7615 24.4763 23.9996 24.4763ZM22.0949 24.4763C22.333 24.4763 22.571 24.2382 22.571 24.0001C22.571 23.762 22.333 23.5239 22.0949 23.5239C21.8568 23.5239 21.6191 23.762 21.6191 24.0001C21.6191 24.2382 21.8568 24.4763 22.0949 24.4763ZM25.9044 24.4763C26.1425 24.4763 26.3806 24.2382 26.3806 24.0001C26.3806 23.762 26.1425 23.5239 25.9044 23.5239C25.6663 23.5239 25.4287 23.762 25.4287 24.0001C25.4287 24.2382 25.6663 24.4763 25.9044 24.4763Z" fill="white"/>
</g>
<defs>
<clipPath id="clip0_170_5613">
<rect width="10" height="10" fill="white" transform="translate(19 19)"/>
</clipPath>
</defs>
</svg>
