<svg width="48" height="48" viewBox="0 0 48 48" fill="none" xmlns="http://www.w3.org/2000/svg">
<circle cx="24" cy="24" r="12" fill="black"/>
<path d="M28.6768 22.5213L25.679 22.0651L24.3389 19.2201C24.3023 19.1422 24.2421 19.0791 24.1677 19.0408C23.9811 18.9444 23.7544 19.0247 23.6612 19.2201L22.3211 22.0651L19.3233 22.5213C19.2406 22.5336 19.165 22.5745 19.1072 22.6363C19.0372 22.7116 18.9987 22.8128 19 22.9179C19.0014 23.0229 19.0425 23.123 19.1143 23.1964L21.2832 25.4108L20.7708 28.5376C20.7588 28.6104 20.7665 28.6852 20.793 28.7536C20.8195 28.822 20.8638 28.8812 20.9208 28.9246C20.9779 28.968 21.0454 28.9937 21.1157 28.999C21.186 29.0042 21.2563 28.9888 21.3186 28.9543L24 27.478L26.6814 28.9543C26.7546 28.9951 26.8396 29.0087 26.9211 28.9939C27.1265 28.9568 27.2647 28.7528 27.2292 28.5376L26.7168 25.4108L28.8858 23.1964C28.9448 23.1358 28.9838 23.0566 28.9956 22.9701C29.0275 22.7537 28.8834 22.5534 28.6768 22.5213Z" fill="white"/>
</svg>
