<svg width="48" height="48" viewBox="0 0 48 48" fill="none" xmlns="http://www.w3.org/2000/svg">
<path d="M19.2 24C21.5212 24 23.4 21.3161 23.4 18C23.4 14.6839 21.5212 12 19.2 12C16.8787 12 15 14.6839 15 18C15 21.3161 16.8787 24 19.2 24ZM22.08 25.7143H21.7687C20.9887 26.25 20.1225 26.5714 19.2 26.5714C18.2775 26.5714 17.415 26.25 16.6312 25.7143H16.32C13.935 25.7143 12 28.4786 12 31.8857V33.4286C12 34.8482 12.8062 36 13.8 36H24.6C25.5937 36 26.4 34.8482 26.4 33.4286V31.8857C26.4 28.4786 24.465 25.7143 22.08 25.7143ZM30 24C31.9875 24 33.6 21.6964 33.6 18.8571C33.6 16.0179 31.9875 13.7143 30 13.7143C28.0125 13.7143 26.4 16.0179 26.4 18.8571C26.4 21.6964 28.0125 24 30 24ZM31.8 25.7143H31.6575C31.1363 25.9714 30.585 26.1429 30 26.1429C29.415 26.1429 28.8637 25.9714 28.3425 25.7143H28.2C27.435 25.7143 26.73 26.0304 26.1112 26.5393C27.0262 27.9482 27.6 29.8179 27.6 31.8857V33.9429C27.6 34.0607 27.5812 34.1732 27.5775 34.2857H34.2C35.1937 34.2857 36 33.1339 36 31.7143C36 28.3982 34.1213 25.7143 31.8 25.7143Z" fill="black"/>
</svg>
