<svg width="48" height="48" viewBox="0 0 48 48" fill="none" xmlns="http://www.w3.org/2000/svg">
<path d="M35.7611 14.384C35.9142 14.5392 36.0002 14.7493 36.0002 14.9683C36.0002 15.1873 35.9142 15.3974 35.7611 15.5526L34.0522 17.2805L30.7753 13.9703L32.4842 12.2423C32.6378 12.0872 32.8462 12 33.0634 12C33.2806 12 33.489 12.0872 33.6426 12.2423L35.7611 14.3824V14.384ZM32.8938 18.4491L29.6169 15.1388L18.4541 26.4169C18.3639 26.5079 18.296 26.619 18.2558 26.7413L16.9368 30.7368C16.9129 30.8096 16.9095 30.8877 16.927 30.9624C16.9445 31.0371 16.9823 31.1054 17.036 31.1596C17.0897 31.2139 17.1573 31.252 17.2312 31.2697C17.3052 31.2874 17.3825 31.284 17.4546 31.2598L21.4098 29.9274C21.5307 29.8873 21.6407 29.8193 21.731 29.7288L32.8938 18.4507V18.4491Z" fill="black"/>
<path fill-rule="evenodd" clip-rule="evenodd" d="M12 33.5173C12 34.1757 12.2589 34.8072 12.7198 35.2728C13.1807 35.7384 13.8059 36 14.4577 36H32.4808C33.1326 36 33.7577 35.7384 34.2186 35.2728C34.6795 34.8072 34.9385 34.1757 34.9385 33.5173V23.5865C34.9385 23.367 34.8521 23.1565 34.6985 23.0013C34.5449 22.8461 34.3365 22.7589 34.1192 22.7589C33.9019 22.7589 33.6936 22.8461 33.5399 23.0013C33.3863 23.1565 33.3 23.367 33.3 23.5865V33.5173C33.3 33.7368 33.2137 33.9473 33.06 34.1025C32.9064 34.2577 32.698 34.3449 32.4808 34.3449H14.4577C14.2404 34.3449 14.032 34.2577 13.8784 34.1025C13.7248 33.9473 13.6385 33.7368 13.6385 33.5173V15.3108C13.6385 15.0913 13.7248 14.8808 13.8784 14.7256C14.032 14.5704 14.2404 14.4833 14.4577 14.4833H25.1077C25.325 14.4833 25.5333 14.3961 25.687 14.2409C25.8406 14.0857 25.9269 13.8752 25.9269 13.6557C25.9269 13.4362 25.8406 13.2257 25.687 13.0705C25.5333 12.9153 25.325 12.8281 25.1077 12.8281H14.4577C13.8059 12.8281 13.1807 13.0897 12.7198 13.5553C12.2589 14.0209 12 14.6524 12 15.3108V33.5173Z" fill="black"/>
</svg>
