<svg width="48" height="48" viewBox="0 0 48 48" fill="none" xmlns="http://www.w3.org/2000/svg">
<circle cx="24" cy="24" r="12" fill="#CA4A65"/>
<path d="M21.124 26.4627C21.607 26.4627 21.999 26.8547 21.999 27.3377V28.5867C21.999 28.8187 21.9068 29.0413 21.7427 29.2054C21.5786 29.3695 21.3561 29.4617 21.124 29.4617H19.875C19.6429 29.4617 19.4204 29.3695 19.2563 29.2054C19.0922 29.0413 19 28.8187 19 28.5867V27.3377C19 26.8547 19.392 26.4627 19.875 26.4627H21.124ZM21.124 27.2127H19.875C19.8418 27.2127 19.8101 27.2258 19.7866 27.2493C19.7632 27.2727 19.75 27.3045 19.75 27.3377V28.5867C19.75 28.6557 19.806 28.7117 19.875 28.7117H21.124C21.1572 28.7117 21.1889 28.6985 21.2124 28.6751C21.2358 28.6516 21.249 28.6198 21.249 28.5867V27.3377C21.249 27.3045 21.2358 27.2727 21.2124 27.2493C21.1889 27.2258 21.1572 27.2127 21.124 27.2127ZM22.874 27.4617H28.6265C28.7215 27.4617 28.813 27.4978 28.8824 27.5627C28.9518 27.6275 28.994 27.7163 29.0005 27.8111C29.007 27.9059 28.9772 27.9996 28.9173 28.0733C28.8573 28.147 28.7716 28.1952 28.6775 28.2082L28.6265 28.2117H22.874C22.779 28.2116 22.6875 28.1755 22.6181 28.1107C22.5487 28.0458 22.5065 27.957 22.5 27.8622C22.4935 27.7674 22.5233 27.6737 22.5832 27.6C22.6432 27.5263 22.7289 27.4781 22.823 27.4652L22.874 27.4617H28.6265H22.874ZM21.124 22.9622C21.607 22.9622 21.999 23.3542 21.999 23.8372V25.0862C21.999 25.3182 21.9068 25.5408 21.7427 25.7049C21.5786 25.869 21.3561 25.9612 21.124 25.9612H19.875C19.6429 25.9612 19.4204 25.869 19.2563 25.7049C19.0922 25.5408 19 25.3182 19 25.0862V23.8367C19 23.3537 19.392 22.9617 19.875 22.9617H21.124V22.9622ZM21.124 23.7122H19.875C19.8418 23.7122 19.8101 23.7253 19.7866 23.7488C19.7632 23.7722 19.75 23.804 19.75 23.8372V25.0862C19.75 25.1552 19.806 25.2112 19.875 25.2112H21.124C21.1572 25.2112 21.1889 25.198 21.2124 25.1746C21.2358 25.1511 21.249 25.1193 21.249 25.0862V23.8367C21.249 23.8035 21.2358 23.7717 21.2124 23.7483C21.1889 23.7248 21.1572 23.7117 21.124 23.7117V23.7122ZM22.874 23.9617H28.6265C28.7215 23.9617 28.813 23.9978 28.8824 24.0627C28.9518 24.1275 28.994 24.2163 29.0005 24.3111C29.007 24.4059 28.9772 24.4996 28.9173 24.5733C28.8573 24.647 28.7716 24.6952 28.6775 24.7082L28.6265 24.7117H22.874C22.779 24.7116 22.6875 24.6755 22.6181 24.6107C22.5487 24.5458 22.5065 24.457 22.5 24.3622C22.4935 24.2674 22.5233 24.1737 22.5832 24.1C22.6432 24.0263 22.7289 23.9781 22.823 23.9652L22.874 23.9617H28.6265H22.874ZM21.124 19.4617C21.607 19.4617 21.999 19.8537 21.999 20.3367V21.5857C21.999 21.8177 21.9068 22.0403 21.7427 22.2044C21.5786 22.3685 21.3561 22.4607 21.124 22.4607H19.875C19.6429 22.4607 19.4204 22.3685 19.2563 22.2044C19.0922 22.0403 19 21.8177 19 21.5857V20.3367C19 19.8537 19.392 19.4617 19.875 19.4617H21.124ZM21.124 20.2117H19.875C19.8418 20.2117 19.8101 20.2248 19.7866 20.2483C19.7632 20.2717 19.75 20.3035 19.75 20.3367V21.5857C19.75 21.6547 19.806 21.7107 19.875 21.7107H21.124C21.1572 21.7107 21.1889 21.6975 21.2124 21.6741C21.2358 21.6506 21.249 21.6188 21.249 21.5857V20.3367C21.249 20.3035 21.2358 20.2717 21.2124 20.2483C21.1889 20.2248 21.1572 20.2117 21.124 20.2117ZM22.874 20.4617H28.6265C28.7215 20.4617 28.813 20.4978 28.8824 20.5627C28.9518 20.6275 28.994 20.7163 29.0005 20.8111C29.007 20.9059 28.9772 20.9996 28.9173 21.0733C28.8573 21.147 28.7716 21.1952 28.6775 21.2082L28.6265 21.2117H22.874C22.779 21.2116 22.6875 21.1755 22.6181 21.1107C22.5487 21.0458 22.5065 20.957 22.5 20.8622C22.4935 20.7674 22.5233 20.6737 22.5832 20.6C22.6432 20.5263 22.7289 20.4781 22.823 20.4652L22.874 20.4617H28.6265H22.874Z" fill="white"/>
<ellipse cx="29.0586" cy="28.7308" rx="2" ry="1.96154" fill="#CA4A65"/>
<g filter="url(#filter0_d_113_3895)">
<path d="M30.61 28.7079C30.6046 28.6964 30.4947 28.4369 30.2493 28.1745C30.0039 27.9121 29.6311 27.6411 29.0585 27.6411C28.4859 27.6411 28.0943 27.9308 27.8677 28.1745C27.6411 28.4183 27.5123 28.6964 27.507 28.7079C27.5016 28.7227 27.5016 28.739 27.507 28.7538C27.5123 28.7653 27.6223 29.0248 27.8677 29.2872C28.1131 29.5496 28.4859 29.8206 29.0585 29.8206C29.6311 29.8206 30.0227 29.531 30.2493 29.2872C30.4759 29.0434 30.6046 28.7653 30.61 28.7538C30.6154 28.739 30.6154 28.7227 30.61 28.7079ZM30.1715 29.2098C29.8617 29.5381 29.4876 29.7059 29.0585 29.7059C28.6294 29.7059 28.2552 29.5381 27.9455 29.2098C27.8137 29.0687 27.7025 28.9073 27.6156 28.7309C27.7021 28.5542 27.8134 28.3927 27.9455 28.2519C28.2552 27.9222 28.6294 27.7558 29.0585 27.7558C29.4876 27.7558 29.8617 27.9222 30.1715 28.2519C30.3036 28.3927 30.4148 28.5542 30.5014 28.7309C30.4148 28.9075 30.3036 29.069 30.1715 29.2098ZM29.0585 28.1C28.9418 28.1 28.8277 28.137 28.7307 28.2063C28.6337 28.2756 28.558 28.3741 28.5134 28.4894C28.4687 28.6047 28.457 28.7316 28.4798 28.8539C28.5026 28.9763 28.5588 29.0887 28.6413 29.177C28.7238 29.2652 28.8289 29.3253 28.9434 29.3496C29.0578 29.374 29.1765 29.3615 29.2843 29.3137C29.3921 29.266 29.4842 29.1851 29.5491 29.0814C29.6139 28.9776 29.6485 28.8556 29.6485 28.7309C29.6485 28.5635 29.5864 28.4031 29.4757 28.2847C29.365 28.1664 29.215 28.1 29.0585 28.1ZM29.0585 29.2471C28.963 29.2471 28.8697 29.2168 28.7903 29.1601C28.7109 29.1033 28.649 29.0227 28.6125 28.9284C28.5759 28.8341 28.5664 28.7303 28.585 28.6302C28.6036 28.53 28.6496 28.438 28.7171 28.3659C28.7846 28.2937 28.8707 28.2445 28.9643 28.2246C29.0579 28.2047 29.155 28.2149 29.2432 28.254C29.3314 28.293 29.4068 28.3592 29.4599 28.4441C29.5129 28.529 29.5412 28.6288 29.5412 28.7309C29.5412 28.8678 29.4904 28.9991 29.3998 29.0959C29.3093 29.1927 29.1865 29.2471 29.0585 29.2471Z" fill="white"/>
</g>
<defs>
<filter id="filter0_d_113_3895" x="23.5029" y="27.6411" width="11.1113" height="10.1794" filterUnits="userSpaceOnUse" color-interpolation-filters="sRGB">
<feFlood flood-opacity="0" result="BackgroundImageFix"/>
<feColorMatrix in="SourceAlpha" type="matrix" values="0 0 0 0 0 0 0 0 0 0 0 0 0 0 0 0 0 0 127 0" result="hardAlpha"/>
<feOffset dy="4"/>
<feGaussianBlur stdDeviation="2"/>
<feComposite in2="hardAlpha" operator="out"/>
<feColorMatrix type="matrix" values="0 0 0 0 0 0 0 0 0 0 0 0 0 0 0 0 0 0 0.25 0"/>
<feBlend mode="normal" in2="BackgroundImageFix" result="effect1_dropShadow_113_3895"/>
<feBlend mode="normal" in="SourceGraphic" in2="effect1_dropShadow_113_3895" result="shape"/>
</filter>
</defs>
</svg>
