<svg id="Capa_1" data-name="Capa 1" xmlns="http://www.w3.org/2000/svg" viewBox="0 0 24 24">
  <defs>
    <style>
      .cls-1 {
        fill: #fff;
      }
    </style>
  </defs>
  <circle cx="12" cy="12" r="12"/>
  <path class="cls-1" d="M21.12,26.46a.87.87,0,0,1,.88.88v1.25a.87.87,0,0,1-.88.87H19.88a.87.87,0,0,1-.88-.87V27.34a.87.87,0,0,1,.88-.88Zm0,.75H19.88a.13.13,0,0,0-.09,0,.1.1,0,0,0,0,.09v1.25a.12.12,0,0,0,.13.12h1.24a.12.12,0,0,0,.13-.12V27.34a.1.1,0,0,0,0-.09A.13.13,0,0,0,21.12,27.21Zm1.75.25h5.76a.39.39,0,0,1,.25.1.42.42,0,0,1,.12.25.34.34,0,0,1-.08.26.35.35,0,0,1-.24.14H22.87a.35.35,0,0,1-.25-.1.37.37,0,0,1-.12-.25.35.35,0,0,1,.08-.26.38.38,0,0,1,.24-.13ZM21.12,23a.87.87,0,0,1,.88.88v1.25a.89.89,0,0,1-.88.87H19.88a.89.89,0,0,1-.88-.87V23.84a.87.87,0,0,1,.88-.88Zm0,.75H19.88a.13.13,0,0,0-.09,0,.1.1,0,0,0,0,.09v1.25a.12.12,0,0,0,.13.12h1.24a.1.1,0,0,0,.09,0,.09.09,0,0,0,0-.08V23.84a.14.14,0,0,0-.13-.13Zm1.75.25h5.76a.39.39,0,0,1,.25.1.42.42,0,0,1,.12.25.34.34,0,0,1-.08.26.35.35,0,0,1-.24.14H22.87a.35.35,0,0,1-.25-.1.37.37,0,0,1-.12-.25.35.35,0,0,1,.08-.26.38.38,0,0,1,.24-.13Zm-1.75-4.5a.87.87,0,0,1,.88.88v1.25a.89.89,0,0,1-.88.87H19.88a.89.89,0,0,1-.88-.87V20.34a.87.87,0,0,1,.88-.88Zm0,.75H19.88a.14.14,0,0,0-.13.13v1.25a.13.13,0,0,0,.13.12h1.24a.1.1,0,0,0,.09,0,.09.09,0,0,0,0-.08V20.34a.14.14,0,0,0-.13-.13Zm1.75.25h5.76a.39.39,0,0,1,.25.1.42.42,0,0,1,.12.25.34.34,0,0,1-.08.26.35.35,0,0,1-.24.14H22.87a.35.35,0,0,1-.25-.1.37.37,0,0,1-.12-.25.35.35,0,0,1,.08-.26.38.38,0,0,1,.24-.13Z" transform="translate(-11.6 -12)"/>
  <ellipse cx="17.46" cy="16.73" rx="2" ry="1.96"/>
  <path class="cls-1" d="M30.61,28.71a2.52,2.52,0,0,0-.36-.54,1.59,1.59,0,0,0-1.19-.53,1.61,1.61,0,0,0-1.19.53,2.08,2.08,0,0,0-.36.54,0,0,0,0,0,0,0,1.72,1.72,0,0,0,.36.54,1.57,1.57,0,0,0,1.19.53,1.63,1.63,0,0,0,1.19-.53,2.21,2.21,0,0,0,.36-.54A0,0,0,0,0,30.61,28.71Zm-.44.5a1.48,1.48,0,0,1-2.22,0,1.58,1.58,0,0,1-.33-.48,1.58,1.58,0,0,1,.33-.48,1.5,1.5,0,0,1,2.22,0,2,2,0,0,1,.33.48A2,2,0,0,1,30.17,29.21ZM29.06,28.1a.57.57,0,0,0-.33.11.62.62,0,0,0-.22.28.73.73,0,0,0,0,.36.64.64,0,0,0,.16.33.54.54,0,0,0,.3.17.56.56,0,0,0,.34,0,.54.54,0,0,0,.27-.23.68.68,0,0,0,.1-.35.66.66,0,0,0-.17-.45A.62.62,0,0,0,29.06,28.1Zm0,1.15a.44.44,0,0,1-.27-.09.58.58,0,0,1-.18-.23.77.77,0,0,1,0-.3.51.51,0,0,1,.14-.26.41.41,0,0,1,.24-.15.52.52,0,0,1,.28,0,.51.51,0,0,1,.22.19.6.6,0,0,1,.08.29.55.55,0,0,1-.14.37A.49.49,0,0,1,29.06,29.25Z" transform="translate(-11.6 -12)"/>
</svg>
